<svg id="visual" preserveAspectRatio="none" viewBox="0 0 960 540" width="960" height="540" xmlns="http://www.w3.org/2000/svg" xmlns:xlink="http://www.w3.org/1999/xlink" version="1.1"><rect x="0" y="0" width="960" height="540" fill="#fafafa"></rect><path d="M0 91L20 103.5C40 116 80 141 120 147C160 153 200 140 240 147.7C280 155.3 320 183.7 360 177.8C400 172 440 132 480 123C520 114 560 136 600 152C640 168 680 178 720 182.7C760 187.3 800 186.7 840 183C880 179.3 920 172.7 940 169.3L960 166L960 541L940 541C920 541 880 541 840 541C800 541 760 541 720 541C680 541 640 541 600 541C560 541 520 541 480 541C440 541 400 541 360 541C320 541 280 541 240 541C200 541 160 541 120 541C80 541 40 541 20 541L0 541Z" fill="#dfffdc"></path><path d="M0 197L20 207C40 217 80 237 120 254.3C160 271.7 200 286.3 240 279.3C280 272.3 320 243.7 360 223.7C400 203.7 440 192.3 480 188.5C520 184.7 560 188.3 600 195.3C640 202.3 680 212.7 720 212C760 211.3 800 199.7 840 195.5C880 191.3 920 194.7 940 196.3L960 198L960 541L940 541C920 541 880 541 840 541C800 541 760 541 720 541C680 541 640 541 600 541C560 541 520 541 480 541C440 541 400 541 360 541C320 541 280 541 240 541C200 541 160 541 120 541C80 541 40 541 20 541L0 541Z" fill="#b3f6ae"></path><path d="M0 298L20 307.3C40 316.7 80 335.3 120 335.2C160 335 200 316 240 320.5C280 325 320 353 360 364C400 375 440 369 480 356.8C520 344.7 560 326.3 600 323.5C640 320.7 680 333.3 720 345.2C760 357 800 368 840 375.7C880 383.3 920 387.7 940 389.8L960 392L960 541L940 541C920 541 880 541 840 541C800 541 760 541 720 541C680 541 640 541 600 541C560 541 520 541 480 541C440 541 400 541 360 541C320 541 280 541 240 541C200 541 160 541 120 541C80 541 40 541 20 541L0 541Z" fill="#81ec7e"></path><path d="M0 435L20 428.3C40 421.7 80 408.3 120 402.3C160 396.3 200 397.7 240 400.3C280 403 320 407 360 404.5C400 402 440 393 480 405C520 417 560 450 600 466.3C640 482.7 680 482.3 720 476.7C760 471 800 460 840 442.8C880 425.7 920 402.3 940 390.7L960 379L960 541L940 541C920 541 880 541 840 541C800 541 760 541 720 541C680 541 640 541 600 541C560 541 520 541 480 541C440 541 400 541 360 541C320 541 280 541 240 541C200 541 160 541 120 541C80 541 40 541 20 541L0 541Z" fill="#ccff90"></path></svg>