<!-- <?xml version="1.0" standalone="no"?><svg xmlns="http://www.w3.org/2000/svg" viewBox="0 0 1440 320"><path fill="#0099ff" fill-opacity="1" d="M0,224L48,192C96,160,192,96,288,90.7C384,85,480,139,576,165.3C672,192,768,192,864,176C960,160,1056,128,1152,128C1248,128,1344,160,1392,176L1440,192L1440,320L1392,320C1344,320,1248,320,1152,320C1056,320,960,320,864,320C768,320,672,320,576,320C480,320,384,320,288,320C192,320,96,320,48,320L0,320Z"></path></svg> -->
<svg height="100%" width="100%" id="svg" viewBox="0 0 1440 400" xmlns="http://www.w3.org/2000/svg" class="transition duration-300 ease-in-out delay-150"><path d="M 0,400 C 0,400 0,200 0,200 C 111.59999999999997,219.86666666666667 223.19999999999993,239.73333333333332 403,223 C 582.8000000000001,206.26666666666668 830.8000000000002,152.93333333333334 1015,143 C 1199.1999999999998,133.06666666666666 1319.6,166.53333333333333 1440,200 C 1440,200 1440,400 1440,400 Z" stroke="none" stroke-width="0" fill="#ff0080ff" class="transition-all duration-300 ease-in-out delay-150"></path></svg>