<svg id="visual" viewBox="0 0 960 540" width="960" height="540" xmlns="http://www.w3.org/2000/svg" xmlns:xlink="http://www.w3.org/1999/xlink" version="1.1"><rect x="0" y="0" width="960" height="540" fill="#fafafa"></rect><defs><linearGradient id="grad1_0" x1="43.8%" y1="0%" x2="100%" y2="100%"><stop offset="14.444444444444446%" stop-color="#00d62d" stop-opacity="1"></stop><stop offset="85.55555555555554%" stop-color="#00d62d" stop-opacity="1"></stop></linearGradient></defs><defs><linearGradient id="grad1_1" x1="43.8%" y1="0%" x2="100%" y2="100%"><stop offset="14.444444444444446%" stop-color="#00d62d" stop-opacity="1"></stop><stop offset="85.55555555555554%" stop-color="#71e269" stop-opacity="1"></stop></linearGradient></defs><defs><linearGradient id="grad1_2" x1="43.8%" y1="0%" x2="100%" y2="100%"><stop offset="14.444444444444446%" stop-color="#a7ed9c" stop-opacity="1"></stop><stop offset="85.55555555555554%" stop-color="#71e269" stop-opacity="1"></stop></linearGradient></defs><defs><linearGradient id="grad1_3" x1="43.8%" y1="0%" x2="100%" y2="100%"><stop offset="14.444444444444446%" stop-color="#a7ed9c" stop-opacity="1"></stop><stop offset="85.55555555555554%" stop-color="#d4f6cd" stop-opacity="1"></stop></linearGradient></defs><defs><linearGradient id="grad1_4" x1="43.8%" y1="0%" x2="100%" y2="100%"><stop offset="14.444444444444446%" stop-color="#ffffff" stop-opacity="1"></stop><stop offset="85.55555555555554%" stop-color="#d4f6cd" stop-opacity="1"></stop></linearGradient></defs><defs><linearGradient id="grad2_0" x1="0%" y1="0%" x2="56.3%" y2="100%"><stop offset="14.444444444444446%" stop-color="#00d62d" stop-opacity="1"></stop><stop offset="85.55555555555554%" stop-color="#00d62d" stop-opacity="1"></stop></linearGradient></defs><defs><linearGradient id="grad2_1" x1="0%" y1="0%" x2="56.3%" y2="100%"><stop offset="14.444444444444446%" stop-color="#71e269" stop-opacity="1"></stop><stop offset="85.55555555555554%" stop-color="#00d62d" stop-opacity="1"></stop></linearGradient></defs><defs><linearGradient id="grad2_2" x1="0%" y1="0%" x2="56.3%" y2="100%"><stop offset="14.444444444444446%" stop-color="#71e269" stop-opacity="1"></stop><stop offset="85.55555555555554%" stop-color="#a7ed9c" stop-opacity="1"></stop></linearGradient></defs><defs><linearGradient id="grad2_3" x1="0%" y1="0%" x2="56.3%" y2="100%"><stop offset="14.444444444444446%" stop-color="#d4f6cd" stop-opacity="1"></stop><stop offset="85.55555555555554%" stop-color="#a7ed9c" stop-opacity="1"></stop></linearGradient></defs><defs><linearGradient id="grad2_4" x1="0%" y1="0%" x2="56.3%" y2="100%"><stop offset="14.444444444444446%" stop-color="#d4f6cd" stop-opacity="1"></stop><stop offset="85.55555555555554%" stop-color="#ffffff" stop-opacity="1"></stop></linearGradient></defs><g transform="translate(960, 0)"><path d="M0 243C-30.6 236.1 -61.2 229.2 -90.3 218C-119.4 206.9 -147 191.5 -170.4 170.4C-193.8 149.3 -213.1 122.4 -224.5 93C-235.9 63.6 -239.5 31.8 -243 0L0 0Z" fill="#eafbe6"></path><path d="M0 194.4C-24.5 188.9 -49 183.3 -72.3 174.4C-95.5 165.5 -117.6 153.2 -136.3 136.3C-155.1 119.4 -170.5 97.9 -179.6 74.4C-188.7 50.9 -191.6 25.5 -194.4 0L0 0Z" fill="#bef2b4"></path><path d="M0 145.8C-18.4 141.7 -36.7 137.5 -54.2 130.8C-71.6 124.1 -88.2 114.9 -102.2 102.2C-116.3 89.6 -127.9 73.4 -134.7 55.8C-141.5 38.2 -143.7 19.1 -145.8 0L0 0Z" fill="#8ee883"></path><path d="M0 97.2C-12.2 94.4 -24.5 91.7 -36.1 87.2C-47.8 82.8 -58.8 76.6 -68.2 68.2C-77.5 59.7 -85.2 48.9 -89.8 37.2C-94.4 25.5 -95.8 12.7 -97.2 0L0 0Z" fill="#4edc4e"></path><path d="M0 48.6C-6.1 47.2 -12.2 45.8 -18.1 43.6C-23.9 41.4 -29.4 38.3 -34.1 34.1C-38.8 29.9 -42.6 24.5 -44.9 18.6C-47.2 12.7 -47.9 6.4 -48.6 0L0 0Z" fill="#00d62d"></path></g><g transform="translate(0, 540)"><path d="M0 -243C32 -239.7 63.9 -236.4 93 -224.5C122.1 -212.6 148.3 -192.2 168.3 -168.3C188.3 -144.4 202 -117 213.4 -88.4C224.8 -59.8 233.9 -29.9 243 0L0 0Z" fill="#eafbe6"></path><path d="M0 -194.4C25.6 -191.8 51.1 -189.1 74.4 -179.6C97.7 -170.1 118.6 -153.8 134.6 -134.6C150.6 -115.5 161.6 -93.6 170.7 -70.7C179.9 -47.8 187.1 -23.9 194.4 0L0 0Z" fill="#bef2b4"></path><path d="M0 -145.8C19.2 -143.8 38.3 -141.8 55.8 -134.7C73.2 -127.6 89 -115.3 101 -101C113 -86.6 121.2 -70.2 128 -53C134.9 -35.9 140.3 -17.9 145.8 0L0 0Z" fill="#8ee883"></path><path d="M0 -97.2C12.8 -95.9 25.6 -94.6 37.2 -89.8C48.8 -85.1 59.3 -76.9 67.3 -67.3C75.3 -57.8 80.8 -46.8 85.4 -35.4C89.9 -23.9 93.6 -12 97.2 0L0 0Z" fill="#4edc4e"></path><path d="M0 -48.6C6.4 -47.9 12.8 -47.3 18.6 -44.9C24.4 -42.5 29.7 -38.4 33.7 -33.7C37.7 -28.9 40.4 -23.4 42.7 -17.7C45 -12 46.8 -6 48.6 0L0 0Z" fill="#00d62d"></path></g></svg>