<svg id="visual" viewBox="0 0 960 540" width="960" height="540" xmlns="http://www.w3.org/2000/svg" xmlns:xlink="http://www.w3.org/1999/xlink" version="1.1"><rect x="0" y="0" width="960" height="540" fill="#161625"></rect><defs><linearGradient id="grad1_0" x1="43.8%" y1="0%" x2="100%" y2="100%"><stop offset="14.444444444444446%" stop-color="#00d62d" stop-opacity="1"></stop><stop offset="85.55555555555554%" stop-color="#00d62d" stop-opacity="1"></stop></linearGradient></defs><defs><linearGradient id="grad1_1" x1="43.8%" y1="0%" x2="100%" y2="100%"><stop offset="14.444444444444446%" stop-color="#00d62d" stop-opacity="1"></stop><stop offset="85.55555555555554%" stop-color="#00a481" stop-opacity="1"></stop></linearGradient></defs><defs><linearGradient id="grad1_2" x1="43.8%" y1="0%" x2="100%" y2="100%"><stop offset="14.444444444444446%" stop-color="#006c8c" stop-opacity="1"></stop><stop offset="85.55555555555554%" stop-color="#00a481" stop-opacity="1"></stop></linearGradient></defs><defs><linearGradient id="grad1_3" x1="43.8%" y1="0%" x2="100%" y2="100%"><stop offset="14.444444444444446%" stop-color="#006c8c" stop-opacity="1"></stop><stop offset="85.55555555555554%" stop-color="#003459" stop-opacity="1"></stop></linearGradient></defs><defs><linearGradient id="grad1_4" x1="43.8%" y1="0%" x2="100%" y2="100%"><stop offset="14.444444444444446%" stop-color="#040210" stop-opacity="1"></stop><stop offset="85.55555555555554%" stop-color="#003459" stop-opacity="1"></stop></linearGradient></defs><defs><linearGradient id="grad2_0" x1="0%" y1="0%" x2="56.3%" y2="100%"><stop offset="14.444444444444446%" stop-color="#00d62d" stop-opacity="1"></stop><stop offset="85.55555555555554%" stop-color="#00d62d" stop-opacity="1"></stop></linearGradient></defs><defs><linearGradient id="grad2_1" x1="0%" y1="0%" x2="56.3%" y2="100%"><stop offset="14.444444444444446%" stop-color="#00a481" stop-opacity="1"></stop><stop offset="85.55555555555554%" stop-color="#00d62d" stop-opacity="1"></stop></linearGradient></defs><defs><linearGradient id="grad2_2" x1="0%" y1="0%" x2="56.3%" y2="100%"><stop offset="14.444444444444446%" stop-color="#00a481" stop-opacity="1"></stop><stop offset="85.55555555555554%" stop-color="#006c8c" stop-opacity="1"></stop></linearGradient></defs><defs><linearGradient id="grad2_3" x1="0%" y1="0%" x2="56.3%" y2="100%"><stop offset="14.444444444444446%" stop-color="#003459" stop-opacity="1"></stop><stop offset="85.55555555555554%" stop-color="#006c8c" stop-opacity="1"></stop></linearGradient></defs><defs><linearGradient id="grad2_4" x1="0%" y1="0%" x2="56.3%" y2="100%"><stop offset="14.444444444444446%" stop-color="#003459" stop-opacity="1"></stop><stop offset="85.55555555555554%" stop-color="#040210" stop-opacity="1"></stop></linearGradient></defs><g transform="translate(960, 0)"><path d="M0 243C-32.6 240.3 -65.1 237.6 -93 224.5C-120.9 211.4 -144.1 187.9 -164 164C-184 140.1 -200.8 115.8 -213.4 88.4C-226 61 -234.5 30.5 -243 0L0 0Z" fill="#091c34"></path><path d="M0 194.4C-26 192.2 -52.1 190.1 -74.4 179.6C-96.7 169.1 -115.3 150.4 -131.2 131.2C-147.2 112.1 -160.6 92.7 -170.7 70.7C-180.8 48.8 -187.6 24.4 -194.4 0L0 0Z" fill="#004f78"></path><path d="M0 145.8C-19.5 144.2 -39.1 142.6 -55.8 134.7C-72.5 126.8 -86.4 112.8 -98.4 98.4C-110.4 84.1 -120.5 69.5 -128 53C-135.6 36.6 -140.7 18.3 -145.8 0L0 0Z" fill="#00888f"></path><path d="M0 97.2C-13 96.1 -26 95 -37.2 89.8C-48.3 84.6 -57.6 75.2 -65.6 65.6C-73.6 56.1 -80.3 46.3 -85.4 35.4C-90.4 24.4 -93.8 12.2 -97.2 0L0 0Z" fill="#00be62"></path><path d="M0 48.6C-6.5 48.1 -13 47.5 -18.6 44.9C-24.2 42.3 -28.8 37.6 -32.8 32.8C-36.8 28 -40.2 23.2 -42.7 17.7C-45.2 12.2 -46.9 6.1 -48.6 0L0 0Z" fill="#00d62d"></path></g><g transform="translate(0, 540)"><path d="M0 -243C32.4 -240 64.8 -237.1 93 -224.5C121.2 -211.9 145.3 -189.7 166.2 -166.2C187.1 -142.7 204.8 -117.8 217.1 -89.9C229.4 -62 236.2 -31 243 0L0 0Z" fill="#091c34"></path><path d="M0 -194.4C25.9 -192 51.8 -189.7 74.4 -179.6C97 -169.5 116.2 -151.8 132.9 -132.9C149.7 -114.1 163.9 -94.3 173.7 -71.9C183.5 -49.6 189 -24.8 194.4 0L0 0Z" fill="#004f78"></path><path d="M0 -145.8C19.4 -144 38.9 -142.3 55.8 -134.7C72.7 -127.1 87.2 -113.8 99.7 -99.7C112.2 -85.6 122.9 -70.7 130.3 -54C137.6 -37.2 141.7 -18.6 145.8 0L0 0Z" fill="#00888f"></path><path d="M0 -97.2C13 -96 25.9 -94.8 37.2 -89.8C48.5 -84.8 58.1 -75.9 66.5 -66.5C74.8 -57.1 81.9 -47.1 86.8 -36C91.8 -24.8 94.5 -12.4 97.2 0L0 0Z" fill="#00be62"></path><path d="M0 -48.6C6.5 -48 13 -47.4 18.6 -44.9C24.2 -42.4 29.1 -37.9 33.2 -33.2C37.4 -28.5 41 -23.6 43.4 -18C45.9 -12.4 47.2 -6.2 48.6 0L0 0Z" fill="#00d62d"></path></g></svg>