<?xml version="1.0" encoding="UTF-8" standalone="no"?>
<svg width="256px" height="289px" viewBox="0 0 256 289" version="1.1" xmlns="http://www.w3.org/2000/svg" xmlns:xlink="http://www.w3.org/1999/xlink" preserveAspectRatio="xMidYMid">
    <g>
        <path d="M 126.519531 255.132812 C 125.679688 255.132812 124.839844 254.792969 124.078125 254.230469 L 116.398438 247.796875 C 115.238281 246.890625 115.800781 246.554688 116.199219 246.382812 C 117.71875 245.648438 118.039062 245.480469 119.679688 244.125 C 119.839844 244.011719 120.078125 244.070312 120.238281 244.183594 L 126.160156 249.148438 C 126.359375 249.320312 126.679688 249.320312 126.878906 249.148438 L 150 230.296875 C 150.199219 230.128906 150.359375 229.789062 150.359375 229.394531 L 150.359375 191.746094 C 150.359375 191.351562 150.238281 191.011719 150 190.839844 L 126.878906 172.046875 C 126.679688 171.875 126.398438 171.875 126.160156 172.046875 L 103.039062 190.839844 C 102.800781 191.011719 102.679688 191.40625 102.679688 191.746094 L 102.679688 229.394531 C 102.679688 229.734375 102.839844 230.070312 103.039062 230.242188 L 109.359375 235.375 C 112.800781 237.804688 114.921875 234.925781 114.921875 232.101562 L 114.921875 194.90625 C 114.921875 194.398438 115.199219 193.945312 115.601562 193.945312 L 118.519531 193.945312 C 118.878906 193.945312 119.199219 194.339844 119.199219 194.90625 L 119.199219 232.101562 C 119.199219 238.59375 116.71875 242.261719 112.359375 242.261719 C 111.039062 242.261719 109.960938 242.261719 107.039062 240.230469 L 100.960938 235.320312 C 99.480469 234.078125 98.519531 231.820312 98.519531 229.394531 L 98.519531 191.746094 C 98.519531 189.316406 99.441406 187.003906 100.960938 185.816406 L 124.078125 166.964844 C 125.558594 165.78125 127.480469 165.78125 128.921875 166.964844 L 152.039062 185.816406 C 153.519531 187.058594 154.480469 189.316406 154.480469 191.746094 L 154.480469 229.394531 C 154.480469 231.820312 153.558594 234.136719 152.039062 235.320312 L 128.921875 254.171875 C 128.238281 254.792969 127.398438 255.132812 126.519531 255.132812 Z M 145.199219 217.992188 C 145.199219 210.9375 141.839844 209.074219 134.71875 207.71875 C 127.519531 206.363281 126.800781 205.6875 126.800781 203.316406 C 126.800781 201.339844 127.398438 198.742188 132.71875 198.742188 C 137.480469 198.742188 139.238281 200.210938 139.960938 204.726562 C 140.039062 205.179688 140.28125 205.460938 140.601562 205.460938 L 143.601562 205.460938 C 143.800781 205.460938 143.960938 205.347656 144.078125 205.179688 C 144.199219 204.953125 144.28125 204.726562 144.238281 204.445312 C 143.761719 196.65625 140.121094 193.042969 132.71875 193.042969 C 126.121094 193.042969 122.199219 196.992188 122.199219 203.542969 C 122.199219 210.710938 126.121094 212.628906 132.441406 213.53125 C 140 214.605469 140.601562 216.128906 140.601562 218.21875 C 140.601562 221.886719 138.519531 223.410156 133.640625 223.410156 C 127.519531 223.410156 126.160156 221.265625 125.71875 216.976562 C 125.679688 216.523438 125.398438 216.1875 125.039062 216.1875 L 122.039062 216.1875 C 121.679688 216.1875 121.359375 216.582031 121.359375 217.144531 C 121.359375 222.621094 123.480469 229.167969 133.601562 229.167969 C 141 229.167969 145.199219 225.105469 145.199219 217.992188 Z M 167 189.710938 C 167 193.15625 165 195.976562 162.558594 195.976562 C 160.121094 195.976562 158.121094 193.15625 158.121094 189.710938 C 158.121094 186.15625 160.199219 183.445312 162.558594 183.445312 C 164.960938 183.390625 167 186.15625 167 189.710938 Z M 166.28125 189.710938 C 166.28125 186.777344 164.601562 184.464844 162.519531 184.464844 C 160.480469 184.464844 158.800781 186.777344 158.800781 189.710938 C 158.800781 192.648438 160.480469 195.019531 162.519531 195.019531 C 164.601562 194.960938 166.28125 192.589844 166.28125 189.710938 Z M 164.480469 193.210938 L 163.441406 193.210938 C 163.398438 192.875 163.238281 191.066406 163.238281 191.011719 C 163.160156 190.617188 163.078125 190.390625 162.71875 190.390625 L 161.839844 190.390625 L 161.839844 193.210938 L 160.878906 193.210938 L 160.878906 186.15625 L 162.601562 186.15625 C 163.199219 186.15625 164.359375 186.15625 164.359375 188.019531 C 164.359375 189.316406 163.761719 189.601562 163.398438 189.769531 C 164.078125 189.824219 164.121094 190.445312 164.238281 191.351562 C 164.28125 191.914062 164.359375 192.875 164.480469 193.210938 Z M 163.359375 188.246094 C 163.359375 187.285156 162.878906 187.285156 162.640625 187.285156 L 161.839844 187.285156 L 161.839844 189.261719 L 162.601562 189.261719 C 163.238281 189.261719 163.359375 188.640625 163.359375 188.246094 Z M 54.921875 107.8125 C 54.921875 106.285156 54.359375 104.933594 53.441406 104.199219 L 28.921875 84.273438 C 28.519531 83.933594 28.039062 83.765625 27.558594 83.707031 L 27.320312 83.707031 C 26.839844 83.707031 26.398438 83.933594 25.960938 84.273438 L 1.480469 104.199219 C 0.558594 104.933594 0 106.34375 0 107.8125 L 0.0390625 161.433594 C 0.0390625 162.167969 0.320312 162.84375 0.761719 163.238281 C 1.199219 163.636719 1.761719 163.636719 2.238281 163.238281 L 16.800781 151.441406 C 17.71875 150.652344 18.28125 149.296875 18.28125 147.832031 L 18.28125 122.769531 C 18.28125 121.300781 18.839844 119.890625 19.761719 119.15625 L 25.960938 114.132812 C 26.441406 113.738281 26.921875 113.566406 27.441406 113.566406 C 27.960938 113.566406 28.480469 113.738281 28.921875 114.132812 L 35.121094 119.15625 C 36.039062 119.890625 36.601562 121.300781 36.601562 122.769531 L 36.601562 147.832031 C 36.601562 149.296875 37.160156 150.710938 38.078125 151.441406 L 52.640625 163.238281 C 53.078125 163.636719 53.679688 163.636719 54.121094 163.238281 C 54.558594 162.902344 54.839844 162.167969 54.839844 161.433594 Z M 189 49.277344 L 189 148.847656 C 189 150.3125 188.441406 151.726562 187.519531 152.457031 L 163 172.441406 C 162.078125 173.175781 160.960938 173.175781 160.039062 172.441406 L 135.519531 152.457031 C 134.601562 151.726562 134.039062 150.3125 134.039062 148.847656 L 134.039062 108.882812 C 134.039062 107.414062 134.601562 106.003906 135.519531 105.269531 L 160.039062 85.289062 C 160.960938 84.554688 162.078125 84.554688 163 85.289062 L 169.121094 90.257812 C 169.800781 90.820312 170.679688 90.085938 170.679688 89.015625 L 170.679688 35.957031 C 170.679688 34.375 171.878906 33.359375 172.878906 34.148438 L 187.480469 45.664062 C 188.398438 46.339844 189 47.753906 189 49.277344 Z M 170.601562 122.035156 C 170.601562 121.640625 170.441406 121.300781 170.238281 121.132812 L 161.839844 114.246094 C 161.601562 114.074219 161.320312 114.074219 161.078125 114.246094 L 152.679688 121.132812 C 152.441406 121.300781 152.320312 121.640625 152.320312 122.035156 L 152.320312 135.75 C 152.320312 136.144531 152.480469 136.484375 152.679688 136.652344 L 161.078125 143.484375 C 161.320312 143.652344 161.601562 143.652344 161.800781 143.484375 L 170.199219 136.652344 C 170.441406 136.484375 170.558594 136.144531 170.558594 135.75 L 170.558594 122.035156 Z M 254.519531 121.640625 C 255.441406 120.90625 256 119.496094 256 118.027344 L 256 108.375 C 256 106.90625 255.441406 105.496094 254.519531 104.761719 L 230.160156 84.78125 C 229.238281 84.046875 228.121094 84.046875 227.199219 84.78125 L 202.679688 104.761719 C 201.761719 105.496094 201.199219 106.90625 201.199219 108.375 L 201.199219 148.339844 C 201.199219 149.863281 201.761719 151.21875 202.679688 151.949219 L 227.039062 171.539062 C 227.921875 172.269531 229.039062 172.269531 229.960938 171.539062 L 244.679688 159.964844 C 245.679688 159.175781 245.679688 157.144531 244.679688 156.351562 L 220 136.371094 C 219.519531 135.976562 219.238281 135.300781 219.238281 134.566406 L 219.238281 122.035156 C 219.238281 121.300781 219.519531 120.625 220 120.230469 L 227.679688 113.964844 C 228.121094 113.566406 228.71875 113.566406 229.160156 113.964844 L 236.839844 120.230469 C 237.28125 120.625 237.601562 121.300781 237.601562 122.035156 L 237.601562 131.855469 C 237.601562 133.4375 238.839844 134.453125 239.839844 133.664062 Z M 223.601562 123.617188 C 223.441406 123.785156 223.320312 124.011719 223.320312 124.292969 L 223.320312 131.96875 C 223.320312 132.25 223.441406 132.535156 223.601562 132.644531 L 228.320312 136.484375 C 228.480469 136.652344 228.71875 136.652344 228.878906 136.484375 L 233.601562 132.648438 C 233.761719 132.476562 233.878906 132.25 233.878906 131.96875 L 233.878906 124.292969 C 233.878906 124.011719 233.761719 123.726562 233.601562 123.617188 L 228.878906 119.777344 C 228.71875 119.609375 228.480469 119.609375 228.320312 119.777344 Z M 121.921875 148.167969 L 121.921875 108.429688 C 121.921875 106.964844 121.28125 105.554688 120.359375 104.820312 L 95.921875 84.949219 C 95.078125 84.273438 93.921875 84.160156 92.960938 84.949219 L 68.519531 104.820312 C 67.601562 105.554688 66.960938 106.90625 66.960938 108.429688 L 66.960938 148.167969 C 66.960938 149.75 67.71875 151.105469 68.558594 151.78125 L 93.039062 171.648438 C 94 172.441406 95.121094 172.382812 96 171.648438 L 120.398438 151.78125 C 121.121094 151.21875 121.640625 150.257812 121.839844 149.128906 C 121.878906 148.847656 121.921875 148.507812 121.921875 148.167969 Z M 92.199219 77.667969 L 91.878906 77.949219 L 92.320312 77.949219 Z M 122.679688 151.160156 L 122.519531 150.765625 L 122.519531 151.273438 Z M 122.679688 151.160156 " fill="#539E43"></path>
    </g>
</svg>
