<svg xmlns="http://www.w3.org/2000/svg" xmlns:xlink="http://www.w3.org/1999/xlink" viewBox="0 0 74.375 85" fill="#fff" fill-rule="evenodd" stroke="#000" stroke-linecap="round" stroke-linejoin="round"><use xlink:href="#A" x="2.188" y="2.5"/><symbol id="A" overflow="visible"><g stroke="none"><path d="M5.634 13.883L0 16.546v46.8l5.634 2.663 13.827-26.068L5.634 13.883z" fill="#8c3123"/><path d="M35 59.278L5.634 66V13.883L35 20.605 48.878 40.02 35 59.278z" fill="#e05243"/><path d="M35 59.278L64.356 66l5.077-25.395-5.077-26.722L35 20.605v38.673z" fill="#8c3123"/><path d="M64.356 13.883L70 16.546v46.8l-5.644 2.663V13.883z" fill="#e05243"/><path d="M22.195 48.566L35 50.117 45.153 40.02 35 29.932l-12.805 1.522v17.112z" fill="#8c3123"/><path d="M47.805 23.171L35 25.376l-12.805-2.205L35 0l12.805 23.171z" fill="#5e1f18"/><path d="M47.805 56.829L35 54.605l-12.805 2.224L35 80l12.805-23.171z" fill="#f2b0a9"/><path d="M47.805 23.171L35 20.176V0l12.805 6.049v17.122z" fill="#e05243"/><path d="M22.195 23.171L35 20.176V0L22.195 6.049v17.122z" fill="#8c3123"/><path d="M35 80l12.805-6.049V56.829L35 59.824V80z" fill="#e05243"/><path d="M35 80l-12.805-6.049V56.829L35 59.824V80z" fill="#8c3123"/><path d="M47.805 48.566L35 50.117V29.932l12.805 1.522v17.112z" fill="#e05243"/></g></symbol></svg>